<svg width="26" height="26" viewBox="0 0 26 26" fill="none" xmlns="http://www.w3.org/2000/svg">
<path d="M6.78266 15.0469L8.33848 12.039C8.50762 11.7031 8.7649 11.4195 9.0828 11.2185C9.40069 11.0175 9.76725 10.9068 10.1432 10.8981H21.3037M21.3037 10.8981C21.6206 10.8975 21.9334 10.9696 22.2181 11.1087C22.5029 11.2479 22.7519 11.4504 22.9462 11.7007C23.1405 11.9511 23.2748 12.2426 23.3389 12.553C23.403 12.8634 23.3951 13.1843 23.3159 13.4911L21.7186 19.7144C21.603 20.162 21.3412 20.5582 20.9748 20.8401C20.6084 21.122 20.1583 21.2734 19.696 21.2702H4.70822C4.15805 21.2702 3.63041 21.0517 3.24138 20.6626C2.85234 20.2736 2.63379 19.746 2.63379 19.1958V5.71198C2.63379 5.16181 2.85234 4.63417 3.24138 4.24514C3.63041 3.85611 4.15805 3.63755 4.70822 3.63755H8.75337C9.1003 3.63415 9.44255 3.71782 9.74878 3.8809C10.055 4.04399 10.3155 4.28127 10.5063 4.57105L11.3464 5.81571C11.5353 6.10253 11.7924 6.33797 12.0948 6.5009C12.3971 6.66382 12.7351 6.74914 13.0786 6.7492H19.2293C19.7794 6.7492 20.3071 6.96776 20.6961 7.35679C21.0851 7.74582 21.3037 8.27346 21.3037 8.82364V10.8981Z" stroke="#F54900" stroke-width="2.07443" stroke-linecap="round" stroke-linejoin="round"/>
</svg>
