<svg width="20" height="20" viewBox="0 0 20 20" fill="none" xmlns="http://www.w3.org/2000/svg">
<path d="M5.83337 1.66663H14.1667C14.8297 1.66663 15.4656 1.93002 15.9345 2.39886C16.4033 2.8677 16.6667 3.50358 16.6667 4.16663V15.8333C16.6667 16.4963 16.4033 17.1322 15.9345 17.6011C15.4656 18.0699 14.8297 18.3333 14.1667 18.3333H5.83337C5.17033 18.3333 4.53445 18.0699 4.06561 17.6011C3.59677 17.1322 3.33337 16.4963 3.33337 15.8333V4.16663C3.33337 3.50358 3.59677 2.8677 4.06561 2.39886C4.53445 1.93002 5.17033 1.66663 5.83337 1.66663ZM5.83337 3.33329C5.61236 3.33329 5.4004 3.42109 5.24412 3.57737C5.08784 3.73365 5.00004 3.94561 5.00004 4.16663V15.8333C5.00004 16.0543 5.08784 16.2663 5.24412 16.4225C5.4004 16.5788 5.61236 16.6666 5.83337 16.6666H14.1667C14.3877 16.6666 14.5997 16.5788 14.756 16.4225C14.9122 16.2663 15 16.0543 15 15.8333V4.16663C15 3.94561 14.9122 3.73365 14.756 3.57737C14.5997 3.42109 14.3877 3.33329 14.1667 3.33329H5.83337ZM7.50004 4.16663H12.5C12.7211 4.16663 12.933 4.25442 13.0893 4.4107C13.2456 4.56698 13.3334 4.77894 13.3334 4.99996C13.3334 5.22097 13.2456 5.43293 13.0893 5.58921C12.933 5.74549 12.7211 5.83329 12.5 5.83329H7.50004C7.27903 5.83329 7.06707 5.74549 6.91078 5.58921C6.7545 5.43293 6.66671 5.22097 6.66671 4.99996C6.66671 4.77894 6.7545 4.56698 6.91078 4.4107C7.06707 4.25442 7.27903 4.16663 7.50004 4.16663ZM7.50004 14.1666H9.16671C9.38772 14.1666 9.59968 14.2544 9.75596 14.4107C9.91224 14.567 10 14.7789 10 15C10 15.221 9.91224 15.4329 9.75596 15.5892C9.59968 15.7455 9.38772 15.8333 9.16671 15.8333H7.50004C7.27903 15.8333 7.06707 15.7455 6.91078 15.5892C6.7545 15.4329 6.66671 15.221 6.66671 15C6.66671 14.7789 6.7545 14.567 6.91078 14.4107C7.06707 14.2544 7.27903 14.1666 7.50004 14.1666ZM7.50004 10.8333H12.5C12.7211 10.8333 12.933 10.9211 13.0893 11.0774C13.2456 11.2336 13.3334 11.4456 13.3334 11.6666C13.3334 11.8876 13.2456 12.0996 13.0893 12.2559C12.933 12.4122 12.7211 12.5 12.5 12.5H7.50004C7.27903 12.5 7.06707 12.4122 6.91078 12.2559C6.7545 12.0996 6.66671 11.8876 6.66671 11.6666C6.66671 11.4456 6.7545 11.2336 6.91078 11.0774C7.06707 10.9211 7.27903 10.8333 7.50004 10.8333ZM7.50004 7.49996H12.5C12.7211 7.49996 12.933 7.58776 13.0893 7.74404C13.2456 7.90032 13.3334 8.11228 13.3334 8.33329C13.3334 8.5543 13.2456 8.76627 13.0893 8.92255C12.933 9.07883 12.7211 9.16662 12.5 9.16662H7.50004C7.27903 9.16662 7.06707 9.07883 6.91078 8.92255C6.7545 8.76627 6.66671 8.5543 6.66671 8.33329C6.66671 8.11228 6.7545 7.90032 6.91078 7.74404C7.06707 7.58776 7.27903 7.49996 7.50004 7.49996Z" fill="#FF6900"/>
</svg>
