<svg width="31" height="30" viewBox="0 0 31 30" fill="none" xmlns="http://www.w3.org/2000/svg">
<path d="M7.56668 20.5752H15.9732C16.3282 20.5753 16.6699 20.7102 16.9293 20.9525C17.1887 21.1949 17.3465 21.5266 17.3706 21.8808C17.3948 22.235 17.2837 22.5851 17.0597 22.8605C16.8357 23.1359 16.5155 23.3159 16.1638 23.3643L15.9732 23.3774H7.56668C7.21169 23.3773 6.86998 23.2424 6.61059 23.0001C6.3512 22.7577 6.19347 22.426 6.16928 22.0718C6.14508 21.7176 6.25622 21.3675 6.48024 21.0921C6.70426 20.8167 7.02446 20.6367 7.37613 20.5883L7.56668 20.5752ZM10.3128 9.77745C10.5503 9.54044 10.8649 9.39652 11.1995 9.37183C11.5341 9.34715 11.8664 9.44335 12.1361 9.64294L12.293 9.77932L18.8315 16.3178C19.0799 16.5681 19.2247 16.9029 19.2371 17.2553C19.2495 17.6077 19.1286 17.9519 18.8984 18.219C18.6683 18.4862 18.3458 18.6568 17.9954 18.6967C17.6451 18.7366 17.2925 18.6429 17.0082 18.4343L16.8513 18.298L10.3128 11.7595C10.0504 11.4968 9.90307 11.1407 9.90307 10.7694C9.90307 10.3981 10.0504 10.0402 10.3128 9.77745ZM22.5117 5.63208C22.8503 5.63209 23.1774 5.75471 23.4325 5.97725C23.6877 6.19979 23.8536 6.5072 23.8997 6.84263L23.9128 7.03317V15.4397C23.9127 15.7947 23.7778 16.1364 23.5355 16.3958C23.2931 16.6552 22.9613 16.8129 22.6072 16.8371C22.253 16.8613 21.9029 16.7502 21.6275 16.5262C21.3521 16.3022 21.172 15.982 21.1237 15.6303L21.1106 15.4397V7.03317C21.1106 6.66158 21.2582 6.30521 21.521 6.04245C21.7837 5.77969 22.1401 5.63208 22.5117 5.63208Z" fill="#F54900"/>
</svg>
