<svg width="25" height="26" viewBox="0 0 25 26" fill="none" xmlns="http://www.w3.org/2000/svg">
<path d="M12.5059 10.8979H12.5159" stroke="#F54900" stroke-width="2.07443" stroke-linecap="round" stroke-linejoin="round"/>
<path d="M12.5059 15.047H12.5159" stroke="#F54900" stroke-width="2.07443" stroke-linecap="round" stroke-linejoin="round"/>
<path d="M12.5059 6.74915H12.5159" stroke="#F54900" stroke-width="2.07443" stroke-linecap="round" stroke-linejoin="round"/>
<path d="M16.6553 10.8979H16.6653" stroke="#F54900" stroke-width="2.07443" stroke-linecap="round" stroke-linejoin="round"/>
<path d="M16.6553 15.047H16.6653" stroke="#F54900" stroke-width="2.07443" stroke-linecap="round" stroke-linejoin="round"/>
<path d="M16.6553 6.74915H16.6653" stroke="#F54900" stroke-width="2.07443" stroke-linecap="round" stroke-linejoin="round"/>
<path d="M8.35742 10.8979H8.36742" stroke="#F54900" stroke-width="2.07443" stroke-linecap="round" stroke-linejoin="round"/>
<path d="M8.35742 15.047H8.36742" stroke="#F54900" stroke-width="2.07443" stroke-linecap="round" stroke-linejoin="round"/>
<path d="M8.35742 6.74915H8.36742" stroke="#F54900" stroke-width="2.07443" stroke-linecap="round" stroke-linejoin="round"/>
<path d="M9.39453 23.3448V20.2331C9.39453 19.9581 9.50381 19.6942 9.69833 19.4997C9.89284 19.3052 10.1567 19.1959 10.4317 19.1959H14.5806C14.8557 19.1959 15.1195 19.3052 15.314 19.4997C15.5086 19.6942 15.6178 19.9581 15.6178 20.2331V23.3448" stroke="#F54900" stroke-width="2.07443" stroke-linecap="round" stroke-linejoin="round"/>
<path d="M18.729 2.60046H6.28244C5.13676 2.60046 4.20801 3.52922 4.20801 4.6749V21.2704C4.20801 22.416 5.13676 23.3448 6.28244 23.3448H18.729C19.8747 23.3448 20.8035 22.416 20.8035 21.2704V4.6749C20.8035 3.52922 19.8747 2.60046 18.729 2.60046Z" stroke="#F54900" stroke-width="2.07443" stroke-linecap="round" stroke-linejoin="round"/>
</svg>
