<svg width="6" height="11" viewBox="0 0 6 11" fill="none" xmlns="http://www.w3.org/2000/svg">
<path fill-rule="evenodd" clip-rule="evenodd" d="M0.219737 4.96976C0.079134 5.11041 0.000147343 5.30114 0.000147343 5.50001C0.000147343 5.69889 0.079134 5.88962 0.219737 6.03026L4.46249 10.273C4.53167 10.3446 4.61443 10.4018 4.70593 10.4411C4.79744 10.4804 4.89585 10.5011 4.99544 10.502C5.09502 10.5028 5.19378 10.4838 5.28595 10.4461C5.37812 10.4084 5.46186 10.3527 5.53228 10.2823C5.6027 10.2119 5.65839 10.1282 5.6961 10.036C5.73381 9.94381 5.75279 9.84505 5.75192 9.74546C5.75106 9.64588 5.73037 9.54746 5.69106 9.45596C5.65176 9.36446 5.59462 9.2817 5.52299 9.21251L1.81049 5.50001L5.52299 1.78751C5.65961 1.64606 5.7352 1.45661 5.73349 1.25996C5.73178 1.06331 5.65291 0.875205 5.51385 0.736149C5.3748 0.597093 5.18669 0.518217 4.99004 0.516508C4.79339 0.514799 4.60394 0.590395 4.46249 0.727013L0.219737 4.96976Z" fill="#8B4513"/>
</svg>
