<svg width="20" height="21" viewBox="0 0 20 21" fill="none" xmlns="http://www.w3.org/2000/svg">
<path d="M10.0003 1.8446C5.40532 1.8446 1.66699 5.58294 1.66699 10.1779C1.66699 14.7729 5.40532 18.5113 10.0003 18.5113C14.5953 18.5113 18.3337 14.7729 18.3337 10.1779C18.3337 5.58294 14.5953 1.8446 10.0003 1.8446ZM10.0003 16.8446C6.32449 16.8446 3.33366 13.8538 3.33366 10.1779C3.33366 6.5021 6.32449 3.51127 10.0003 3.51127C13.6762 3.51127 16.667 6.5021 16.667 10.1779C16.667 13.8538 13.6762 16.8446 10.0003 16.8446Z" fill="#FF6900"/>
<path d="M10.8337 6.01135H9.16699V10.523L11.9112 13.2672L13.0895 12.0889L10.8337 9.83302V6.01135Z" fill="#FF6900"/>
</svg>
