<svg width="25" height="26" viewBox="0 0 25 26" fill="none" xmlns="http://www.w3.org/2000/svg">
<path d="M15.6174 2.60046H6.28244C5.73227 2.60046 5.20463 2.81902 4.8156 3.20805C4.42656 3.59708 4.20801 4.12472 4.20801 4.6749V21.2704C4.20801 21.8205 4.42656 22.3482 4.8156 22.7372C5.20463 23.1262 5.73227 23.3448 6.28244 23.3448H18.729C19.2792 23.3448 19.8069 23.1262 20.1959 22.7372C20.5849 22.3482 20.8035 21.8205 20.8035 21.2704V7.78655L15.6174 2.60046Z" stroke="#F54900" stroke-width="2.07443" stroke-linecap="round" stroke-linejoin="round"/>
<path d="M14.5811 2.60046V6.74933C14.5811 7.29951 14.7996 7.82715 15.1886 8.21618C15.5777 8.60521 16.1053 8.82376 16.6555 8.82376H20.8044" stroke="#F54900" stroke-width="2.07443" stroke-linecap="round" stroke-linejoin="round"/>
<path d="M10.4319 9.86084H8.35742" stroke="#F54900" stroke-width="2.07443" stroke-linecap="round" stroke-linejoin="round"/>
<path d="M16.6552 14.0098H8.35742" stroke="#F54900" stroke-width="2.07443" stroke-linecap="round" stroke-linejoin="round"/>
<path d="M16.6552 18.1586H8.35742" stroke="#F54900" stroke-width="2.07443" stroke-linecap="round" stroke-linejoin="round"/>
</svg>
