<svg width="26" height="26" viewBox="0 0 26 26" fill="none" xmlns="http://www.w3.org/2000/svg">
<path d="M17.1548 22.3074V20.233C17.1548 19.1326 16.7177 18.0773 15.9397 17.2993C15.1616 16.5212 14.1063 16.0841 13.006 16.0841H6.78266C5.68231 16.0841 4.62703 16.5212 3.84896 17.2993C3.0709 18.0773 2.63379 19.1326 2.63379 20.233V22.3074" stroke="#F54900" stroke-width="2.07443" stroke-linecap="round" stroke-linejoin="round"/>
<path d="M17.1553 3.77039C18.045 4.00103 18.8329 4.52057 19.3953 5.24745C19.9578 5.97433 20.263 6.8674 20.263 7.78649C20.263 8.70558 19.9578 9.59865 19.3953 10.3255C18.8329 11.0524 18.045 11.5719 17.1553 11.8026" stroke="#F54900" stroke-width="2.07443" stroke-linecap="round" stroke-linejoin="round"/>
<path d="M23.3783 22.3073V20.2329C23.3776 19.3136 23.0716 18.4206 22.5084 17.6941C21.9452 16.9676 21.1567 16.4487 20.2666 16.2189" stroke="#F54900" stroke-width="2.07443" stroke-linecap="round" stroke-linejoin="round"/>
<path d="M9.89496 11.9353C12.1863 11.9353 14.0438 10.0778 14.0438 7.78644C14.0438 5.49508 12.1863 3.63757 9.89496 3.63757C7.6036 3.63757 5.74609 5.49508 5.74609 7.78644C5.74609 10.0778 7.6036 11.9353 9.89496 11.9353Z" stroke="#F54900" stroke-width="2.07443" stroke-linecap="round" stroke-linejoin="round"/>
</svg>
