<svg width="17" height="17" viewBox="0 0 17 17" fill="none" xmlns="http://www.w3.org/2000/svg">
<g clip-path="url(#clip0_134_2462)">
<path d="M10.9007 14.1777V12.8444C10.9007 12.1372 10.6198 11.4589 10.1197 10.9588C9.61957 10.4587 8.94129 10.1777 8.23405 10.1777H4.23405C3.52681 10.1777 2.84853 10.4587 2.34843 10.9588C1.84833 11.4589 1.56738 12.1372 1.56738 12.8444V14.1777" stroke="#EA580C" stroke-width="1.33333" stroke-linecap="round" stroke-linejoin="round"/>
<path d="M10.9014 2.26318C11.4732 2.41143 11.9796 2.74536 12.3412 3.21256C12.7027 3.67976 12.8988 4.25378 12.8988 4.84452C12.8988 5.43526 12.7027 6.00928 12.3412 6.47648C11.9796 6.94367 11.4732 7.2776 10.9014 7.42585" stroke="#EA580C" stroke-width="1.33333" stroke-linecap="round" stroke-linejoin="round"/>
<path d="M14.9014 14.178V12.8446C14.9009 12.2538 14.7043 11.6798 14.3423 11.2129C13.9803 10.7459 13.4735 10.4124 12.9014 10.2646" stroke="#EA580C" stroke-width="1.33333" stroke-linecap="round" stroke-linejoin="round"/>
<path d="M6.23405 7.51107C7.70681 7.51107 8.90072 6.31716 8.90072 4.8444C8.90072 3.37164 7.70681 2.17773 6.23405 2.17773C4.76129 2.17773 3.56738 3.37164 3.56738 4.8444C3.56738 6.31716 4.76129 7.51107 6.23405 7.51107Z" stroke="#EA580C" stroke-width="1.33333" stroke-linecap="round" stroke-linejoin="round"/>
</g>
<defs>
<clipPath id="clip0_134_2462">
<rect width="16" height="16" fill="white" transform="translate(0.234375 0.177734)"/>
</clipPath>
</defs>
</svg>
