<svg width="20" height="21" viewBox="0 0 20 21" fill="none" xmlns="http://www.w3.org/2000/svg">
<path d="M18.108 15.1781L11.4414 3.51142C11.296 3.25492 11.0852 3.04157 10.8305 2.89314C10.5757 2.74471 10.2862 2.6665 9.99136 2.6665C9.69654 2.6665 9.40699 2.74471 9.15226 2.89314C8.89753 3.04157 8.68673 3.25492 8.54136 3.51142L1.8747 15.1781C1.72777 15.4325 1.65072 15.7213 1.65137 16.0152C1.65202 16.309 1.73035 16.5975 1.8784 16.8513C2.02646 17.1051 2.23899 17.3152 2.49444 17.4604C2.7499 17.6056 3.0392 17.6807 3.33303 17.6781H16.6664C16.9588 17.6778 17.246 17.6006 17.4991 17.4542C17.7522 17.3078 17.9624 17.0973 18.1085 16.844C18.2545 16.5907 18.3314 16.3034 18.3313 16.011C18.3312 15.7186 18.2542 15.4313 18.108 15.1781Z" stroke="#FF6900" stroke-width="1.66667" stroke-linecap="round" stroke-linejoin="round"/>
<path d="M10 7.67798V11.0113" stroke="#FF6900" stroke-width="1.66667" stroke-linecap="round" stroke-linejoin="round"/>
<path d="M10 14.3447H10.0083" stroke="#FF6900" stroke-width="1.66667" stroke-linecap="round" stroke-linejoin="round"/>
</svg>
